<svg width="25" height="24" viewBox="0 0 16 16" fill="none" xmlns="http://www.w3.org/2000/svg">
  <path d="M6.31194 9.80181L5.57799 9.08109L0.440368 14.2703V15.5676L6.31194 9.80181Z" fill="#343A40"/>
  <path d="M12.3303 2.3063L13.0642 3.17117L15.5597 0.432433H14.0918L12.3303 2.3063Z" fill="#343A40"/>
  <path d="M5.57484 8.64866C5.6927 8.64784 5.806 8.6935 5.88935 8.77534L6.62329 9.49607C6.79527 9.66494 6.79527 9.93868 6.62329 10.1076L0.751722 15.8733C0.625777 15.997 0.436344 16.034 0.27179 15.9671C0.107267 15.9001 0 15.7425 0 15.5676V14.2703C0 14.1577 0.0447969 14.0495 0.124714 13.9688L5.26234 8.77957L5.29445 8.75029C5.37265 8.68565 5.47171 8.64938 5.57484 8.64866ZM11.8899 15.2793V13.5496H11.3028C11.0596 13.5496 10.8624 13.356 10.8624 13.1171C10.8624 12.8783 11.0596 12.6847 11.3028 12.6847H13.3578C13.601 12.6847 13.7982 12.8783 13.7982 13.1171C13.7982 13.356 13.601 13.5496 13.3578 13.5496H12.7707V15.2793C12.7707 15.5181 12.5735 15.7117 12.3303 15.7117C12.0871 15.7117 11.8899 15.5181 11.8899 15.2793ZM8.36699 13.5496C8.36699 12.3032 8.51272 11.5782 8.92232 10.9972C9.12054 10.716 9.36682 10.4885 9.63505 10.2621C9.91519 10.0256 10.2029 9.80267 10.5677 9.4803C11.6141 8.5555 11.8899 7.09224 11.8899 6.48649C11.8899 6.47692 11.8901 6.46733 11.8908 6.45778C11.9344 5.81599 11.7741 4.85336 11.1663 4.07602C10.5765 3.32163 9.52096 2.68431 7.64594 2.73846C5.78976 2.79208 4.78106 3.54997 4.23682 4.4299C3.67471 5.33878 3.57723 6.43124 3.66658 7.15513C3.69584 7.39221 3.52383 7.6078 3.2824 7.63655C3.04098 7.66528 2.82144 7.49636 2.79215 7.2593C2.68579 6.39761 2.7938 5.09718 3.48424 3.98086C4.19261 2.83561 5.48373 1.93586 7.62014 1.87416C9.73777 1.813 11.0799 2.5451 11.865 3.54927C12.6299 4.52758 12.8228 5.70862 12.7701 6.50817C12.7641 7.25972 12.4468 8.98355 11.1571 10.1233C10.788 10.4495 10.4518 10.7131 10.209 10.9181C9.9544 11.133 9.77855 11.3021 9.64652 11.4893C9.39561 11.8452 9.24772 12.3456 9.24772 13.5496C9.24772 14.11 9.10706 14.5642 8.83001 14.9037C8.55261 15.2436 8.17683 15.4217 7.79789 15.5006C7.06389 15.6534 6.23388 15.4548 5.70815 15.2483C5.48237 15.1596 5.37249 14.9081 5.46274 14.6864C5.55305 14.4647 5.8092 14.3568 6.03499 14.4454C6.48782 14.6233 7.12581 14.7564 7.61498 14.6546C7.84759 14.6061 8.02238 14.5101 8.1425 14.3629C8.26295 14.2153 8.36699 13.9692 8.36699 13.5496ZM0.880736 14.4457V14.5237L5.68923 9.80181L5.58229 9.6968L0.880736 14.4457ZM6.65196 3.61487C8.02784 3.29848 9.49185 3.67188 10.3481 4.51267C11.1527 5.30284 11.2401 6.33156 10.9759 7.24832C10.7147 8.15491 10.1009 9.00533 9.40168 9.55659C9.21203 9.70606 8.93494 9.67609 8.7827 9.48987C8.63047 9.30364 8.66072 9.03155 8.85036 8.88204C9.41881 8.4339 9.92107 7.73234 10.1285 7.01267C10.3329 6.30326 10.2417 5.63125 9.72536 5.12416C9.11371 4.52353 7.97438 4.19924 6.85265 4.45721C6.4721 4.54476 6.13452 4.80414 5.871 5.1312C5.60445 5.46203 5.45725 5.80792 5.42404 5.98734C5.38049 6.22227 5.15125 6.37803 4.91199 6.33531C4.67275 6.29255 4.51413 6.06744 4.55763 5.83249C4.62229 5.4834 4.84575 5.00958 5.18034 4.59432C5.518 4.17528 6.01233 3.76197 6.65196 3.61487ZM15.5597 0L15.5921 0.00112613C15.7527 0.01272 15.8952 0.109984 15.9616 0.255912C16.0325 0.411573 16.0037 0.593628 15.8879 0.720721L13.3925 3.45946C13.3072 3.55312 13.1845 3.60582 13.0565 3.60361C12.9285 3.6014 12.8079 3.54447 12.7259 3.44792L11.992 2.58305C11.8505 2.41632 11.8567 2.17243 12.0066 2.01295L13.7681 0.139077L13.8011 0.107545C13.881 0.0385397 13.9843 0 14.0918 0H15.5597ZM12.9157 2.32095L13.076 2.50957L14.5746 0.864866H14.2847L12.9157 2.32095Z" fill="#343A40"/>
</svg>
