<svg width="24" height="24" fill="none" xmlns="http://www.w3.org/2000/svg"><path d="M21 6.75A3.761 3.761 0 0017.25 3a3.731 3.731 0 00-3.75 3.75 3.736 3.736 0 003.047 3.703c-.047.797-.235 1.453-.61 1.875-.796 1.031-2.484 1.172-4.218 1.36-1.36.093-2.719.234-3.797.796-.14.047-.281.141-.422.235V7.453c1.688-.375 3-1.875 3-3.703A3.761 3.761 0 006.75 0 3.731 3.731 0 003 3.75c0 1.828 1.266 3.328 3 3.703v9.14c-1.734.329-3 1.876-3 3.657C3 22.36 4.64 24 6.75 24c2.063 0 3.75-1.64 3.75-3.75 0-1.688-1.172-3.14-2.766-3.61.235-.421.563-.656.891-.843.797-.422 1.969-.516 3.234-.61 1.97-.187 4.032-.421 5.25-1.921.61-.704.891-1.641.938-2.86C19.734 10.031 21 8.578 21 6.75zm-16.5-3A2.25 2.25 0 016.75 1.5C7.969 1.5 9 2.531 9 3.75A2.25 2.25 0 016.75 6 2.221 2.221 0 014.5 3.75zM9 20.25a2.25 2.25 0 01-2.25 2.25 2.221 2.221 0 01-2.25-2.25c0-1.219.984-2.203 2.203-2.25h.047C7.969 18.047 9 19.031 9 20.25zm8.766-11.297L17.25 9A2.221 2.221 0 0115 6.75a2.25 2.25 0 012.25-2.25c1.219 0 2.25 1.031 2.25 2.25 0 1.078-.75 1.969-1.734 2.203z" fill="#323233"/></svg>
