<svg width="24" height="24" fill="none" xmlns="http://www.w3.org/2000/svg"><path d="M19.5 9.75a.75.75 0 00-.75-.75h-7.5a.75.75 0 100 1.5h7.5a.75.75 0 00.75-.75zm0 4.5a.75.75 0 00-.75-.75h-7.5a.75.75 0 100 1.5h7.5a.75.75 0 00.75-.75zM18.75 18a.75.75 0 110 1.5h-7.5a.75.75 0 110-1.5h7.5z" fill="#323233"/><path d="M21 0a3 3 0 013 3v18a3 3 0 01-3 3H3a3 3 0 01-3-3V3a3 3 0 013-3h18zM3 1.5A1.5 1.5 0 001.5 3v1.5h21V3A1.5 1.5 0 0021 1.5H3zM1.5 6v15A1.5 1.5 0 003 22.5h3V6H1.5zm6 0v16.5H21a1.5 1.5 0 001.5-1.5V6h-15z" fill="#323233"/></svg>
