<svg width="24" height="24" fill="none" xmlns="http://www.w3.org/2000/svg"><path d="M23.297 4.594l-3.89-3.89C18.983.28 18.374 0 17.811 0H8.204A2.282 2.282 0 006 2.297V13.5H.375a.37.37 0 00-.375.375v.75c0 .234.14.375.375.375H12v2.484c0 .516.281.985.75 1.172a1.285 1.285 0 001.453-.234l3.375-3.188c.235-.28.422-.609.422-.937 0-.375-.188-.703-.422-.985l-3.375-3.187c-.375-.375-.937-.469-1.453-.234-.469.187-.75.656-.75 1.171V13.5H7.5V2.297c0-.422.328-.797.75-.797h8.25v4.922c0 .61.469 1.078 1.125 1.078H22.5v14.297c0 .375-.375.75-.75.75H8.203c-.375 0-.75-.375-.75-.75V16.5H6v5.297A2.2 2.2 0 008.203 24H21.75c1.219 0 2.25-.984 2.25-2.203V6.187c0-.562-.281-1.171-.703-1.593zM13.5 11.53l2.906 2.719-2.906 2.766V11.53zM18 6.047v-4.5c.094.047.234.094.328.187l3.938 3.938c.093.094.14.234.187.375H18z" fill="#323233"/></svg>
