<svg width="24" height="24" fill="none" xmlns="http://www.w3.org/2000/svg"><g clip-path="url(#clip0)"><path d="M23.79 5.371c-.095-.421-.47-.796-.892-.937-.468-.094-.937 0-1.265.328l-3 3-2.063-.328-.328-2.063 3-3c.328-.328.422-.796.328-1.265-.14-.422-.515-.797-.937-.89-2.438-.61-4.969.093-6.703 1.874-1.782 1.781-2.485 4.313-1.828 6.75l-9.047 9.094c-1.407 1.36-1.407 3.656 0 5.016.656.703 1.547 1.03 2.484 1.03.984 0 1.875-.327 2.531-1.03l9.047-9.047a7.015 7.015 0 006.797-1.828c1.781-1.782 2.484-4.266 1.875-6.704zm-2.907 5.672a5.692 5.692 0 01-5.719 1.313l-.469-.14-9.656 9.702c-.797.75-2.156.75-2.953 0a2.123 2.123 0 010-2.953l9.703-9.703-.14-.422a5.692 5.692 0 011.312-5.719c1.078-1.03 2.484-1.64 3.937-1.64.329 0 .657.047.985.094l-3.281 3.28.656 3.891 3.89.61L22.43 6.12a5.793 5.793 0 01-1.547 4.922zm-17.11 8.438c-.421 0-.75.375-.75.75 0 .422.329.75.75.75.375 0 .75-.328.75-.75 0-.375-.375-.75-.75-.75z" fill="#323233"/></g><defs><clipPath id="clip0"><path fill="#fff" d="M0 0h24v24H0z"/></clipPath></defs></svg>
