<svg width="24" height="24" fill="none" xmlns="http://www.w3.org/2000/svg"><path d="M7.5 6a.75.75 0 000 1.5h9a.75.75 0 100-1.5h-9zm-.75 3.75A.75.75 0 017.5 9h9a.75.75 0 110 1.5h-9a.75.75 0 01-.75-.75zM7.5 12a.75.75 0 100 1.5h9a.75.75 0 100-1.5h-9zm0 3a.75.75 0 100 1.5H12a.75.75 0 100-1.5H7.5z" fill="#323233"/><path d="M3 3a3 3 0 013-3h12a3 3 0 013 3v18a3 3 0 01-3 3H6a3 3 0 01-3-3V3zm15-1.5H6A1.5 1.5 0 004.5 3v18A1.5 1.5 0 006 22.5h12a1.5 1.5 0 001.5-1.5V3A1.5 1.5 0 0018 1.5z" fill="#323233"/></svg>
