<svg width="24" height="24" fill="none" xmlns="http://www.w3.org/2000/svg"><g clip-path="url(#clip0)" fill="#323233"><path d="M21.75 4.5a.75.75 0 01.75.75v13.5a.75.75 0 01-.75.75H2.25a.75.75 0 01-.75-.75V5.25a.75.75 0 01.75-.75h19.5zM2.25 3A2.25 2.25 0 000 5.25v13.5A2.25 2.25 0 002.25 21h19.5A2.25 2.25 0 0024 18.75V5.25A2.25 2.25 0 0021.75 3H2.25z"/><path d="M10.5 8.25a.75.75 0 01.75-.75h7.5a.75.75 0 110 1.5h-7.5a.75.75 0 01-.75-.75zM8.256 6.969a.75.75 0 010 1.062l-2.25 2.25a.75.75 0 01-1.062 0l-.75-.75a.751.751 0 011.062-1.062l.219.22 1.719-1.72a.75.75 0 011.062 0zM10.5 14.25a.75.75 0 01.75-.75h7.5a.75.75 0 110 1.5h-7.5a.75.75 0 01-.75-.75zm-2.244-1.281a.75.75 0 010 1.062l-2.25 2.25a.75.75 0 01-1.062 0l-.75-.75a.75.75 0 111.062-1.062l.219.22 1.719-1.72a.75.75 0 011.062 0z"/></g><defs><clipPath id="clip0"><path fill="#fff" d="M0 0h24v24H0z"/></clipPath></defs></svg>
